<svg width="42" height="42" viewBox="0 0 42 42" fill="none" xmlns="http://www.w3.org/2000/svg">
<path d="M36.0564 5.18018H6.59724C5.88878 5.18018 5.31641 5.75255 5.31641 6.46101V35.9201C5.31641 36.6286 5.88878 37.201 6.59724 37.201H36.0564C36.7648 37.201 37.3372 36.6286 37.3372 35.9201V6.46101C37.3372 5.75255 36.7648 5.18018 36.0564 5.18018ZM14.8146 32.4659H10.0635V17.184H14.8146V32.4659ZM12.441 15.0946C11.8964 15.0946 11.364 14.9331 10.9111 14.6305C10.4582 14.3279 10.1053 13.8978 9.89686 13.3947C9.68843 12.8915 9.6339 12.3378 9.74016 11.8036C9.84641 11.2694 10.1087 10.7787 10.4938 10.3936C10.8789 10.0085 11.3696 9.7462 11.9038 9.63995C12.438 9.53369 12.9917 9.58823 13.4949 9.79665C13.998 10.0051 14.4281 10.358 14.7307 10.8109C15.0333 11.2638 15.1948 11.7962 15.1948 12.3408C15.1908 13.8618 13.958 15.0946 12.441 15.0946ZM32.6021 32.4659H27.855V25.0331C27.855 23.2599 27.823 20.9824 25.3854 20.9824C22.9158 20.9824 22.5356 22.9117 22.5356 24.905V32.4659H17.7925V17.184H22.3475V19.2733H22.4115C23.0439 18.0725 24.5929 16.8037 26.9064 16.8037C31.7175 16.8037 32.6021 19.9698 32.6021 24.0844V32.4659Z" fill="#EF2779"/>
</svg>
