<svg width="42" height="42" viewBox="0 0 42 42" fill="none" xmlns="http://www.w3.org/2000/svg">
<path d="M36.072 5.18018H6.61286C5.9044 5.18018 5.33203 5.75255 5.33203 6.46101V35.9201C5.33203 36.6286 5.9044 37.201 6.61286 37.201H36.072C36.7804 37.201 37.3528 36.6286 37.3528 35.9201V6.46101C37.3528 5.75255 36.7804 5.18018 36.072 5.18018ZM32.3736 14.5262H29.8159C27.8106 14.5262 27.4224 15.4789 27.4224 16.8798V19.9658H32.2095L31.5851 24.7969H27.4224V37.201H22.4311V24.8009H18.2564V19.9658H22.4311V16.4035C22.4311 12.2688 24.9568 10.0153 28.6472 10.0153C30.4163 10.0153 31.9333 10.1474 32.3776 10.2074V14.5262H32.3736Z" fill="#EF2779"/>
</svg>
