<svg width="28" height="23" viewBox="0 0 28 23" fill="none" xmlns="http://www.w3.org/2000/svg">
<g clip-path="url(#clip0)">
<path d="M26.1719 1.38477H1.79688C1.27832 1.38477 0.859375 1.80371 0.859375 2.32227V21.0723C0.859375 21.5908 1.27832 22.0098 1.79688 22.0098H26.1719C26.6904 22.0098 27.1094 21.5908 27.1094 21.0723V2.32227C27.1094 1.80371 26.6904 1.38477 26.1719 1.38477ZM25 4.63086V19.9004H2.96875V4.63086L2.16016 4.00098L3.31152 2.52148L4.56543 3.49707H23.4062L24.6602 2.52148L25.8115 4.00098L25 4.63086ZM23.4062 3.49414L13.9844 10.8184L4.5625 3.49414L3.30859 2.51855L2.15723 3.99805L2.96582 4.62793L12.9736 12.4092C13.2614 12.6328 13.6155 12.7542 13.98 12.7542C14.3444 12.7542 14.6985 12.6328 14.9863 12.4092L25 4.63086L25.8086 4.00098L24.6572 2.52148L23.4062 3.49414Z" fill="#EF2779"/>
</g>
<defs>
<clipPath id="clip0">
<rect width="27" height="22" fill="white" transform="translate(0.859375 0.697266)"/>
</clipPath>
</defs>
</svg>
