<svg width="42" height="42" viewBox="0 0 42 42" fill="none" xmlns="http://www.w3.org/2000/svg">
<path d="M38.0048 10.8757C36.78 11.4041 35.4472 11.7843 34.0743 11.9324C35.4997 11.0856 36.5671 9.74779 37.0762 8.16997C35.7387 8.96564 34.2734 9.52358 32.7454 9.81904C32.1068 9.1363 31.3344 8.5924 30.4764 8.22123C29.6183 7.85006 28.693 7.65957 27.7582 7.66164C23.9757 7.66164 20.9338 10.7276 20.9338 14.4901C20.9338 15.0184 20.9978 15.5468 21.1019 16.0551C15.4382 15.7589 10.3869 13.0531 7.02873 8.91045C6.41683 9.95559 6.09618 11.1456 6.10013 12.3567C6.10013 14.7262 7.30491 16.8156 9.1421 18.0444C8.05942 18.0017 7.00208 17.7041 6.0561 17.1758V17.2599C6.0561 20.578 8.40162 23.3278 11.5276 23.9602C10.9407 24.1127 10.3369 24.1907 9.73048 24.1924C9.28619 24.1924 8.86592 24.1483 8.44165 24.0883C9.30621 26.7941 11.8238 28.7593 14.8218 28.8234C12.4763 30.6606 9.53836 31.7413 6.34829 31.7413C5.77592 31.7413 5.24757 31.7213 4.69922 31.6572C7.72518 33.5985 11.3155 34.7192 15.182 34.7192C27.7342 34.7192 34.6026 24.3204 34.6026 15.2946C34.6026 14.9984 34.6026 14.7022 34.5826 14.406C35.9115 13.4334 37.0762 12.2286 38.0048 10.8757Z" fill="#EF2779"/>
</svg>
