<svg width="27" height="33" viewBox="0 0 27 33" fill="none" xmlns="http://www.w3.org/2000/svg">
<g clip-path="url(#clip0)">
<path d="M13.8607 19.8639C17.3535 19.8639 20.194 17.0234 20.194 13.5306C20.194 10.0378 17.3535 7.19727 13.8607 7.19727C10.3678 7.19727 7.52734 10.0378 7.52734 13.5306C7.52734 17.0234 10.3678 19.8639 13.8607 19.8639ZM13.8607 10.3639C15.6071 10.3639 17.0273 11.7842 17.0273 13.5306C17.0273 15.277 15.6071 16.6973 13.8607 16.6973C12.1143 16.6973 10.694 15.277 10.694 13.5306C10.694 11.7842 12.1143 10.3639 13.8607 10.3639Z" fill="#EF2779"/>
<path d="M12.6078 32.2359C12.8758 32.4273 13.1969 32.5302 13.5262 32.5302C13.8555 32.5302 14.1765 32.4273 14.4445 32.2359C14.9258 31.8955 26.2388 23.7271 26.1928 13.5304C26.1928 6.54635 20.5103 0.86377 13.5262 0.86377C6.5421 0.86377 0.859514 6.54635 0.859514 13.5225C0.813598 23.7271 12.1265 31.8955 12.6078 32.2359ZM13.5262 4.03044C18.7654 4.03044 23.0262 8.29119 23.0262 13.5384C23.0594 20.5652 16.0785 26.8748 13.5262 28.9442C10.9754 26.8732 3.99293 20.562 4.02618 13.5304C4.02618 8.29119 8.28693 4.03044 13.5262 4.03044Z" fill="#EF2779"/>
</g>
<defs>
<clipPath id="clip0">
<rect width="26" height="32" fill="white" transform="translate(0.859375 0.697266)"/>
</clipPath>
</defs>
</svg>
