<svg width="44" height="44" viewBox="0 0 44 44" fill="none" xmlns="http://www.w3.org/2000/svg">
<rect x="0.5" y="0.250977" width="43" height="43.4981" rx="21.5" fill="#EF2779"/>
<path d="M18.5 13.5C19.9587 13.5 21.3576 14.0473 22.3891 15.0214C23.4205 15.9956 24 17.3168 24 18.6944C24 19.9506 23.53 21.1028 22.74 22H31V30.5H22V22.6989C21.05 23.445 19.83 23.8889 18.5 23.8889C17.0413 23.8889 15.6424 23.3416 14.6109 22.3675C13.5795 21.3933 13 20.0721 13 18.6944C13 17.3168 13.5795 15.9956 14.6109 15.0214C15.6424 14.0473 17.0413 13.5 18.5 13.5Z" fill="white"/>
</svg>
