<svg width="44" height="44" viewBox="0 0 44 44" fill="none" xmlns="http://www.w3.org/2000/svg">
<rect x="0.5" y="0.750977" width="43" height="42.4981" rx="21.249" fill="#EF2779"/>
<path d="M20.524 29.8684C22.0227 29.2461 21.6943 27.5301 20.9366 26.4453C20.1873 25.3339 19.1517 24.5693 18.1077 23.8313C17.3628 23.3355 16.6977 22.7172 16.1376 21.9997C15.9018 21.7063 15.4219 21.1639 15.9102 21.0573C16.407 20.9506 17.2657 21.4663 17.7035 21.6619C18.4697 21.9997 19.2274 22.3909 19.9347 22.8533L20.785 21.3418C19.4716 20.426 17.7877 19.6169 16.2217 19.3768C15.3293 19.2346 14.3863 19.4302 14.0832 20.4527C13.8138 21.3329 14.2432 22.222 14.7315 22.9155C15.885 24.5426 17.6783 25.325 19.017 26.7298C19.3032 27.0233 19.6484 27.37 19.8168 27.779C19.9936 28.1702 19.9515 28.1969 19.5558 28.1969C18.5118 28.1969 17.2068 27.3344 16.3565 26.7654L15.5061 28.2769C16.7943 29.1127 18.9496 30.4197 20.524 29.8684ZM29.8611 15.9982C30.0463 15.8026 30.0463 15.4825 29.8611 15.2958L28.7666 14.1399C28.6784 14.0501 28.5607 14 28.4382 14C28.3157 14 28.198 14.0501 28.1099 14.1399L27.2511 15.0468L29.0023 16.8962L29.8611 15.9982ZM21.5764 21.0395V22.8888H23.3277L28.5056 17.4208L26.7543 15.5714L21.5764 21.0395Z" fill="white"/>
</svg>
