<svg width="44" height="44" viewBox="0 0 44 44" fill="none" xmlns="http://www.w3.org/2000/svg">
<rect x="0.5" y="0.5" width="43" height="43" rx="21.5" fill="#EF2779"/>
<path d="M18.0927 23.2387L20.7239 20.6075L14.9687 14.8616C14.5224 14.4153 13.7507 14.5362 13.4718 15.1127C12.8116 16.498 13.0534 18.1994 14.197 19.3523L18.0927 23.2387ZM24.3964 21.5559C25.8189 22.216 27.8179 21.7511 29.2962 20.2728C31.0721 18.497 31.4161 15.9494 30.0493 14.5827C28.6919 13.2253 26.1443 13.56 24.3592 15.3358C22.8809 16.8141 22.416 18.8131 23.0761 20.2356L14.6526 28.6592C14.4787 28.833 14.381 29.0688 14.381 29.3147C14.381 29.5605 14.4787 29.7963 14.6526 29.9702C14.8264 30.144 15.0622 30.2417 15.308 30.2417C15.5539 30.2417 15.7897 30.144 15.9635 29.9702L21.7187 24.2336L27.4646 29.9795C27.5507 30.0655 27.6529 30.1338 27.7653 30.1804C27.8778 30.227 27.9983 30.251 28.1201 30.251C28.2418 30.251 28.3624 30.227 28.4748 30.1804C28.5873 30.1338 28.6895 30.0655 28.7756 29.9795C28.8616 29.8934 28.9299 29.7912 28.9765 29.6787C29.0231 29.5663 29.0471 29.4457 29.0471 29.324C29.0471 29.2022 29.0231 29.0817 28.9765 28.9692C28.9299 28.8568 28.8616 28.7546 28.7756 28.6685L23.0297 22.9226L24.3964 21.5559Z" fill="white"/>
</svg>
