<svg width="88" height="87" viewBox="0 0 88 87" fill="none" xmlns="http://www.w3.org/2000/svg">
<g clip-path="url(#clip0)">
<path d="M19.553 0H68.447C78.9699 0 87.5 8.53008 87.5 19.053V67.947C87.5 78.4699 78.9699 87 68.447 87H19.553C9.03008 87 0.5 78.4699 0.5 67.947V19.053C0.5 8.53008 9.03008 0 19.553 0Z" fill="url(#paint0_linear)"/>
<path d="M28.3798 63.1463L28.388 63.149L25.4134 68.3011C24.3276 70.1818 21.9228 70.8261 20.0421 69.7403C18.1618 68.6545 17.5171 66.2498 18.6029 64.3691L20.7942 60.5737L21.0046 60.2094C21.3801 59.6697 22.3068 58.7379 24.1607 58.9132C24.1607 58.9132 28.5233 59.3866 28.839 61.6541C28.839 61.6541 28.8818 62.4 28.3798 63.1463ZM70.5691 49.9876H61.2934C60.6616 49.9451 60.386 49.7194 60.2773 49.5882L60.2705 49.5764L50.3412 32.3782L50.3283 32.3867L49.7329 31.533C48.7569 30.0404 47.2072 33.8576 47.2072 33.8576C45.3568 38.111 47.4699 42.9467 48.2063 44.4084L61.9979 68.296C63.0833 70.1763 65.4881 70.821 67.3691 69.7349C69.2495 68.6491 69.8942 66.2443 68.808 64.3636L65.3596 58.3905C65.2927 58.2458 65.1764 57.8529 65.8837 57.8512H70.5691C72.7407 57.8512 74.5011 56.0908 74.5011 53.9192C74.5011 51.7476 72.7407 49.9872 70.5691 49.9872V49.9876ZM52.5526 55.3326C52.5526 55.3326 53.0478 57.8512 51.1321 57.8512H16.8421C14.6705 57.8512 12.9102 56.0908 12.9102 53.9192C12.9102 51.7476 14.6705 49.9872 16.8421 49.9872H25.6577C27.081 49.905 27.4181 49.0832 27.4181 49.0832L27.4262 49.0873L38.9334 29.1562L38.93 29.1555C39.1396 28.7704 38.965 28.4065 38.9347 28.349L35.1342 21.7666C34.0484 19.8862 34.6928 17.4812 36.5735 16.3957C38.4542 15.3099 40.8589 15.9539 41.9447 17.8346L43.7071 20.8874L45.4665 17.84C46.5523 15.9597 48.9571 15.315 50.8377 16.4011C52.7184 17.4869 53.3628 19.8913 52.277 21.772L36.2642 49.5067C36.1942 49.6756 36.1728 49.9407 36.6938 49.9872H46.2652L46.2672 50.0807C46.2672 50.0807 51.7992 50.1667 52.5526 55.3326Z" fill="white"/>
</g>
<defs>
<linearGradient id="paint0_linear" x1="44" y1="0" x2="44" y2="87" gradientUnits="userSpaceOnUse">
<stop stop-color="#17C9FB"/>
<stop offset="1" stop-color="#1A74E8"/>
</linearGradient>
<clipPath id="clip0">
<rect width="87" height="87" fill="white" transform="translate(0.5)"/>
</clipPath>
</defs>
</svg>
