<svg width="100" height="117" viewBox="0 0 100 117" fill="none" xmlns="http://www.w3.org/2000/svg">
<g clip-path="url(#clip0)">
<path d="M30.8145 0.830722C30.2478 0.83436 29.6909 0.978594 29.1941 1.2504C27.563 2.15143 26.9647 4.23981 27.8685 5.8642L31.5512 12.4912C22.6783 17.9617 16.799 27.3065 16.799 37.9719V39.9536C15.0948 37.9997 12.59 36.7661 9.7913 36.7661C4.66341 36.7661 0.5 40.9151 0.5 46.0249V74.5466C0.5 79.656 4.6638 83.8054 9.7913 83.8054C12.59 83.8054 15.0948 82.5714 16.7986 80.6175V84.6128C16.7986 89.9993 21.2215 94.4065 26.6267 94.4065H29.1203V107.094C29.1203 112.205 33.2841 116.354 38.4116 116.354C43.5391 116.354 47.7025 112.204 47.7025 107.094V94.4065H52.0167V107.094C52.0167 112.205 56.1805 116.354 61.308 116.354C66.4355 116.354 70.599 112.204 70.599 107.094V94.4065H73.0929C78.4977 94.4065 82.9206 89.9993 82.9206 84.6128V80.6175C84.6245 82.5714 87.1296 83.8054 89.9283 83.8054C95.0558 83.8054 99.2192 79.656 99.2192 74.5466V46.0249C99.2192 40.9151 95.0558 36.7661 89.9283 36.7661C87.1296 36.7661 84.6245 37.9997 82.9206 39.9536V38.3072V38.2128C82.9214 38.1126 82.9206 38.0324 82.9206 37.9719C82.9206 27.3084 77.0278 17.9729 68.158 12.502L71.8512 5.8642C72.7545 4.23981 72.1567 2.15143 70.5255 1.2504C70.0287 0.978594 69.4718 0.83436 68.9051 0.830722C67.7005 0.819161 66.5183 1.45196 65.8957 2.57149L62.0339 9.52379C58.258 8.13526 54.1495 7.37413 49.86 7.37413C45.5744 7.37413 41.4582 8.12716 37.6853 9.513L33.8239 2.57149C33.2009 1.45196 32.0191 0.819931 30.8145 0.830722Z" fill="white"/>
<path d="M9.79271 39.1777C5.96651 39.1777 2.92188 42.2118 2.92188 46.0248V74.5466C2.92188 78.3595 5.96651 81.3936 9.79271 81.3936C13.6189 81.3936 16.6639 78.3595 16.6639 74.5466V46.0248C16.6639 42.2118 13.6189 39.1777 9.79271 39.1777ZM89.9301 39.1777C86.1035 39.1777 83.0589 42.2118 83.0589 46.0248V74.5466C83.0589 78.3595 86.1035 81.3936 89.9301 81.3936C93.7563 81.3936 96.8009 78.3595 96.8009 74.5466V46.0248C96.8009 42.2118 93.7563 39.1777 89.9301 39.1777Z" fill="#A4C639"/>
<path d="M38.4103 71.7256C34.5841 71.7256 31.5391 74.7597 31.5391 78.5731V107.094C31.5391 110.907 34.5841 113.942 38.4103 113.942C42.2365 113.942 45.2811 110.907 45.2811 107.094V78.5731C45.2811 74.7597 42.2365 71.7256 38.4103 71.7256ZM61.3067 71.7256C57.4802 71.7256 54.4355 74.7597 54.4355 78.5731V107.094C54.4355 110.907 57.4802 113.942 61.3067 113.942C65.1329 113.942 68.1776 110.907 68.1776 107.094V78.5731C68.1776 74.7597 65.1329 71.7256 61.3067 71.7256Z" fill="#A4C639"/>
<path d="M30.835 3.24281C30.6725 3.24476 30.5132 3.288 30.3721 3.36845C29.8822 3.63898 29.7213 4.2001 29.9931 4.68953L34.8337 13.4034C25.5215 18.2322 19.2311 27.4086 19.2188 37.9403H80.5001C80.4874 27.4086 74.1974 18.2319 64.8852 13.4034L69.7254 4.68992C69.9976 4.20048 69.8364 3.63898 69.3464 3.36845C69.2054 3.28796 69.046 3.24471 68.8835 3.24281C68.5355 3.23896 68.2064 3.41238 68.0207 3.74612L63.1171 12.554C59.1061 10.7813 54.607 9.78583 49.8593 9.78583C45.1115 9.78583 40.6128 10.7809 36.6014 12.554L31.6978 3.74612C31.6142 3.59151 31.4895 3.46278 31.3374 3.37402C31.1853 3.28525 31.0116 3.23986 30.8354 3.24281H30.835ZM19.2188 40.352V84.6131C19.2167 85.5831 19.4069 86.544 19.7784 87.4405C20.1499 88.337 20.6955 89.1516 21.3838 89.8375C22.072 90.5234 22.8895 91.067 23.7892 91.4372C24.6888 91.8074 25.653 91.9969 26.6264 91.9947H73.0926C74.0659 91.9969 75.0302 91.8074 75.9299 91.4372C76.8295 91.0669 77.647 90.5233 78.3353 89.8374C79.0236 89.1515 79.5691 88.3368 79.9406 87.4402C80.3121 86.5436 80.5023 85.5828 80.5001 84.6127V40.3524H19.2188V40.352Z" fill="#A4C639"/>
<path d="M35.7171 21.6663C34.3184 21.6663 33.1602 22.8201 33.1602 24.214C33.1602 25.6083 34.3184 26.7622 35.7171 26.7622C37.1163 26.7622 38.2741 25.6083 38.2741 24.214C38.2741 22.8201 37.1163 21.6663 35.7171 21.6663ZM64.001 21.6663C62.6018 21.6663 61.444 22.8201 61.444 24.214C61.444 25.6083 62.6018 26.7622 64.001 26.7622C65.3997 26.7622 66.5579 25.6083 66.5579 24.214C66.5579 22.8201 65.3997 21.6663 64.001 21.6663Z" fill="white"/>
</g>
<defs>
<clipPath id="clip0">
<rect width="99" height="116" fill="white" transform="translate(0.5 0.5)"/>
</clipPath>
</defs>
</svg>
