<svg width="106" height="89" viewBox="0 0 106 89" fill="none" xmlns="http://www.w3.org/2000/svg">
<g clip-path="url(#clip0)">
<path d="M53.1227 0.5C24.7015 0.5 2.43487 36.58 0.328125 67.0536C9.24703 82.4982 30.7547 88.3038 53.1236 88.3038C75.4908 88.3038 96.9997 82.4982 105.914 67.0532C103.807 36.58 81.5432 0.5 53.1232 0.5" fill="#B6DEFF"/>
<path d="M98.4892 59.7947C98.4892 59.7947 92.212 46.2535 85.8317 38.3533C79.4469 30.4498 71.6497 21.844 67.0395 21.844C62.4318 21.844 49.5512 44.5992 43.6421 44.5992C37.7318 44.5992 34.6602 34.2838 27.3939 34.2838C20.1246 34.2838 8.57555 59.1589 8.57555 59.1589L7.79297 63.3759C7.79297 63.3759 11.8052 81.125 53.7804 81.125C95.7572 81.125 99.112 63.6671 99.112 63.6671L98.4896 59.7943" fill="#66CC66"/>
<path d="M44.3009 54.3101C37.7819 54.3101 34.44 47.8923 32.6281 43.9307C30.9987 40.3619 30.7168 34.7275 26.0938 34.5696C26.548 34.3899 26.9852 34.2837 27.3951 34.2837C34.6615 34.2837 37.733 44.5992 43.6434 44.5992C49.5525 44.5992 62.4331 21.8435 67.0408 21.8435C67.9091 21.8435 68.8871 22.1492 69.9483 22.6929C69.1633 22.5896 68.1567 22.6615 67.3811 23.4378C65.8918 24.9243 52.3714 54.3101 44.3009 54.3101Z" fill="#17AD49"/>
</g>
<defs>
<clipPath id="clip0">
<rect width="106" height="88" fill="white" transform="translate(0 0.5)"/>
</clipPath>
</defs>
</svg>
