<svg width="84" height="89" viewBox="0 0 84 89" fill="none" xmlns="http://www.w3.org/2000/svg">
<g clip-path="url(#clip0)">
<path d="M77.6771 71.9491C77.0513 76.5745 73.9216 80.5769 69.5402 82.3556C67.3938 83.244 65.0692 83.5117 62.7439 83.244C60.5087 82.9777 58.2729 82.266 55.9483 80.9332C52.7288 79.1526 49.5096 76.3968 45.7542 72.3054C51.6562 65.1016 55.2321 58.5201 56.574 52.6512C57.2001 49.8938 57.2892 47.4035 57.0214 45.0908C56.6641 42.8677 55.8591 40.8213 54.6066 39.0429C51.8346 35.0412 47.1853 32.7285 41.9987 32.7285C36.8122 32.7285 32.1626 35.1302 29.3905 39.0429C28.1381 40.8217 27.3343 42.8677 26.9761 45.0908C26.6188 47.4035 26.7079 49.9825 27.4235 52.6516C28.7645 58.5198 32.4304 65.1906 38.2433 72.3931C34.5771 76.4855 31.2684 79.2422 28.0489 81.0213C25.7243 82.3556 23.4885 83.0673 21.2533 83.333C18.9491 83.589 16.6168 83.2841 14.4573 82.4446C10.0755 80.6659 6.94649 76.6622 6.3201 72.0378C6.0523 69.815 6.23094 67.5919 7.12513 65.1016C7.39294 64.2116 7.84069 63.3238 8.28713 62.2558C8.91353 60.8334 9.62908 59.3204 10.3437 57.8081L10.4338 57.6314C16.603 44.3791 23.2206 30.8611 30.1061 17.6991L30.3742 17.1644C31.0898 15.8317 31.8043 14.4093 32.5205 13.0746C33.2354 11.6513 34.0402 10.3169 35.0235 9.15991C36.9014 7.0252 39.4053 5.86916 42.1774 5.86916C44.9495 5.86916 47.4531 7.0252 49.331 9.16023C50.3146 10.3169 51.1193 11.6513 51.8349 13.0749C52.5504 14.4093 53.265 15.8317 53.9806 17.1644L54.2497 17.6991C61.045 30.9497 67.6626 44.4678 73.8325 57.72V57.8081C74.548 59.2314 75.1735 60.8334 75.889 62.2558C76.3364 63.3238 76.7832 64.2112 77.051 65.1016C77.7666 67.4136 78.0347 69.638 77.6774 71.9491H77.6771ZM41.9987 67.7687C37.1705 61.7218 34.0402 56.0294 32.9673 51.2282C32.5209 49.1822 32.4304 47.4035 32.6995 45.8024C32.8778 44.3791 33.4151 43.1334 34.1293 42.0654C35.8285 39.6663 38.6898 38.1517 41.9987 38.1517C45.3074 38.1517 48.2581 39.576 49.8675 42.0654C50.5824 43.1334 51.1193 44.3791 51.298 45.8024C51.5661 47.4035 51.4766 49.2709 51.0299 51.2282C49.957 55.9413 46.827 61.6331 41.9987 67.7687ZM82.327 63.1445C81.8802 62.0772 81.4328 60.9215 80.9861 59.9431C80.2705 58.343 79.5549 56.83 78.9289 55.4067L78.8394 55.3187C72.6702 41.9774 66.0525 28.4594 59.0776 15.121L58.8098 14.5857C58.0943 13.2516 57.3787 11.8283 56.6641 10.4056C55.7693 8.80391 54.8748 7.11581 53.4446 5.51381C50.5821 1.95639 46.4697 0 42.0876 0C37.6166 0 33.5931 1.95639 30.6417 5.33677C29.301 6.93716 28.3174 8.62687 27.4232 10.2289C26.7076 11.6513 25.9921 13.0746 25.2768 14.4093L25.0087 14.9414C18.1239 28.2817 11.4171 41.8007 5.24694 55.141L5.15778 55.3187C4.53138 56.741 3.81583 58.2524 3.10028 59.8544C2.62191 60.9085 2.17484 61.9763 1.75964 63.0565C0.596667 66.3463 0.239377 69.4597 0.686151 72.6608C1.67048 79.3312 6.14146 84.935 12.3113 87.4244C14.6357 88.4034 17.0501 88.8478 19.5544 88.8478C20.2696 88.8478 21.1638 88.7588 21.8794 88.6691C24.8297 88.3128 27.8699 87.3364 30.8203 85.6457C34.4872 83.6003 37.9749 80.6659 41.9089 76.3968C45.843 80.6659 49.4201 83.6007 52.9969 85.6457C55.9483 87.3364 58.9881 88.3128 61.9389 88.6691C62.6544 88.7588 63.5486 88.8478 64.2638 88.8478C66.7678 88.8478 69.2711 88.4034 71.5069 87.4244C77.7662 84.935 82.1477 79.2426 83.1314 72.6608C83.847 69.5474 83.4887 66.4362 82.3267 63.1442L82.327 63.1445Z" fill="#E0565B"/>
</g>
<defs>
<clipPath id="clip0">
<rect width="83" height="89" fill="white" transform="translate(0.5)"/>
</clipPath>
</defs>
</svg>
